# xmcd
#
# Track frame offsets:
#	150
#	14931
#	43830
#	72984
#	108153
#	134644
#	153695
#	180968
#	198600
#	226512
#	242941
#	266458
#	280222
#
# Disc length: 4724 seconds
#
# Revision: 2
# Processed by: cddbd v1.5.2PL0 Copyright (c) Steve Scherf et al.
# Submitted via: EZCDAudioConverter 2.1.7.1
#
DISCID=be12720d
DTITLE=Ambrose Akinmusire - The Imagined Savior Is Far Easier To Paint
DYEAR=2014
DGENRE=
TTITLE0=Marie Christie
TTITLE1=As We Fight (Willie Penrose)
TTITLE2=Our Basement (Ed)
TTITLE3=Vartha
TTITLE4=Memo (G. Learson)
TTITLE5=The Beauty Of Dissolving Portraits
TTITLE6=Asiam (Joan)
TTITLE7=Bubbles (John William Sublett)
TTITLE8=Ceaseless Inexhaustible Child (Cyntoia Brown)
TTITLE9=Rollcall For Those Absent
TTITLE10=J.E. Nilmah (Ecclesiastes 6:10)
TTITLE11=Inflatedbyspinning
TTITLE12=Richard (Conduit)
EXTD=
EXTT0=
EXTT1=
EXTT2=
EXTT3=
EXTT4=
EXTT5=
EXTT6=
EXTT7=
EXTT8=
EXTT9=
EXTT10=
EXTT11=
EXTT12=
PLAYORDER=
